<?xml version="1.0" encoding="iso-8859-1"?><!-- Generator: Adobe Illustrator 22.1.0, SVG Export Plug-In . SVG Version: 6.00 Build 0)  --><svg xmlns="http://www.w3.org/2000/svg" xmlns:xlink="http://www.w3.org/1999/xlink" viewBox="0 0 30 30" width="30px" height="30px"><path d="M24,4H6C4.895,4,4,4.895,4,6v18c0,1.105,0.895,2,2,2h18c1.105,0,2-0.895,2-2V6C26,4.895,25.105,4,24,4z M21.361,18.967l-1.868,0.026c0,0-0.403,0.079-0.93-0.285c-0.699-0.48-1.358-1.729-1.872-1.567c-0.521,0.166-0.505,1.29-0.505,1.29s0.004,0.198-0.115,0.327c-0.129,0.139-0.382,0.125-0.382,0.125h-0.837c0,0-1.846,0.153-3.473-1.543c-1.772-1.849-3.338-5.498-3.338-5.498s-0.092-0.23,0.006-0.348c0.111-0.13,0.41-0.134,0.41-0.134l2-0.01c0,0,0.188,0.033,0.324,0.133c0.111,0.082,0.174,0.236,0.174,0.236s0.323,0.819,0.752,1.561c0.836,1.446,1.224,1.763,1.508,1.608c0.414-0.226,0.29-2.044,0.29-2.044s0.008-0.66-0.208-0.954c-0.168-0.229-0.484-0.297-0.622-0.314c-0.113-0.015,0.071-0.277,0.311-0.395c0.36-0.176,0.996-0.186,1.747-0.179c0.585,0.006,0.754,0.042,0.982,0.098c0.69,0.167,0.456,0.811,0.456,2.356c0,0.495-0.089,1.191,0.267,1.42c0.154,0.099,0.529,0.015,1.464-1.579c0.445-0.756,0.778-1.644,0.778-1.644s0.073-0.158,0.186-0.226c0.116-0.07,0.272-0.048,0.272-0.048l2.105-0.013c0,0,0.632-0.076,0.735,0.211c0.108,0.3-0.236,1.001-1.096,2.148c-1.412,1.884-1.569,1.709-0.396,2.799c1.12,1.041,1.351,1.547,1.39,1.611C22.339,18.906,21.361,18.967,21.361,18.967z"/></svg>