<svg width="30" height="30" viewBox="0 0 30 30" fill="none" xmlns="http://www.w3.org/2000/svg">
<path d="M30.0001 15C30.0001 6.71375 23.2863 0 15.0001 0C6.71381 0 6.10352e-05 6.71375 6.10352e-05 15C6.10352e-05 23.2863 6.71381 30 15.0001 30C23.2863 30 30.0001 23.2863 30.0001 15ZM14.6751 23.1362L9.09881 8.67375C8.85631 8.0025 9.26256 7.41625 10.2776 7.63375L10.2763 7.6325L21.8776 10.095C22.7001 10.2775 22.9001 10.7662 22.5126 11.45L19.7488 15.2L21.4913 17.0088C21.6913 17.2088 21.8601 17.3775 21.8601 17.765L18.0438 17.4987L11.7651 10.5488C11.4988 10.2463 11.3488 10.6163 11.6138 11.015L17.0213 19.6037L15.8663 23.3062C15.6113 24.11 15.0626 24.1275 14.6751 23.1362V23.1362Z" fill="black"/>
</svg>
